<?xml version="1.0" encoding="utf-8"?>
<!-- Generator: Adobe Illustrator 23.0.1, SVG Export Plug-In . SVG Version: 6.00 Build 0)  -->
<svg version="1.2" baseProfile="tiny" id="Capa_1" xmlns="http://www.w3.org/2000/svg" xmlns:xlink="http://www.w3.org/1999/xlink"
	 x="0px" y="0px" viewBox="0 0 300 300" xml:space="preserve">
<g>
	<g>
		<g>
			<path fill="#FEFEFE" d="M300.7,150.7c0,49,0,98,0.1,147c0,2.6-0.5,3.1-3.1,3.1c-98-0.1-196-0.1-294,0c-2.6,0-3.1-0.5-3.1-3.1
				c0.1-98,0.1-196,0-294c0-2.6,0.5-3.1,3.1-3.1c98,0.1,196,0.1,294,0c2.6,0,3.1,0.5,3.1,3.1C300.7,52.7,300.7,101.7,300.7,150.7z"
				/>
			<path fill="#46404D" d="M255.8,199.2c4.3,2.4,8.9,4.3,10.5,9.7c3.5,11.4-4.4,20.3-13.9,20c-6.8-0.2-13.7,0.1-20.5,0.1l-0.3,0.2
				l-0.3-0.1c-0.5,0.1-0.9,0.3-1.4,0.4c-3,0.9-6.1,0.5-9.2,0.5c-2.3,0-3.3,1-3.3,3.3c0,2.1,0.3,4.2-1,6.1c-0.6,4.8,0.2,9.8-2.3,14.5
				c-4.7,8.8-11.7,10.5-19.4,8.9c-3.1-0.7-3.2,0.3-3.3,2.7c-0.2,5.5,0.9,11.2-0.8,16.6c-2.3,7.6-10,12.7-18,11.7
				c-7.2-0.9-14.2-6.9-14.6-15.6c-0.1-2.7-0.9-2.7-3-2.1c-11.3,3.3-22-4.5-22.3-16.2c-0.1-2.4-0.3-4.7-0.4-7.1
				c-0.8-1.6-1-3.3-0.9-5.1c0-4.8,0-9.7,0-14.5c0-2.3-1-3.4-3.3-3.4c-4.5,0-8.7-0.1-12.8,2.6c-4.2,2.7-9.1,2.9-13.5,0.5
				c-3.1-1.6-5.5,0.4-8.3,0.2c-4.8,0.2-9.4-0.5-13.1-3.8c-1-0.9-2.1-0.7-3.2-0.7c-5.3,0-10.7,0-16,0c-7.7,0-14-6-14.7-13.3
				c-0.7-7.5,5.7-15.7,13.2-15.7c0.9,0,1.7-0.2,2.4-0.9c3.1-1.8,6.6-1,9.8-0.9c4.4,0.2,7.7-0.8,10.9-4.2c4.1-4.4,9.7-6.4,16.2-6.9
				c-6.5-7.5-11.8-15.3-15.4-24.2c-3.3-8.8-5.1-18-4.7-27.4c0.2-2.6-1.9-2.5-3.5-2.9c-7.9-2.1-14.1-6.9-19.5-12.9
				c-0.8-0.9-1.1-1.9-1.4-3c-1.5-3.3-3-6.5-4.4-9.8c-0.9-2.2-2.1-1.1-3.1-0.3c-3.8,2.9-6.1,6.9-6.8,11.5c-0.3,2.1-1,2.3-2.7,2.3
				c-6.3,0.1-6.5,0.2-6.5-6.1c0-9.6-0.4-19.2,0.5-28.7c1.2-11.8,6.2-22.4,14.2-31.4c9.6-10.8,21.6-17.4,35.8-19.6
				c1.6-0.2,1.9-1.2,2.5-2.3c7.6-13.8,19-21,35.1-21c32.8,0.2,65.5,0.1,98.3,0c3.5,0,4,1.1,3.9,4.2c-0.1,5.3-1.2,10.2-4.1,15.3
				c3.5,0,6.6,0.2,9.6,0c2.5-0.2,3.3,0.4,3.4,3.2c0.2,7.6-2.4,14.2-6.8,20.2c-0.6,0.8-1,1.7-1.6,2.5c-1.6,3.4-4.9,4.8-7.9,6.3
				c-2,1-2.5,2-1.7,4c1.7,4.3,2.7,8.8,3.5,13.3c0.4,1.9,1,3.5,2.8,4.5c6.9,3.6,11.9,9.3,15.7,16.1c2.6,5.6,4,11.4,3.9,17.7
				c-0.2,6.7,0,13.4-0.1,20.1c0.2,8.5,0.2,17,0,25.4c0,5.1,0,10.2,0,15.3c-0.1,11.6-7,18.4-18.6,18.4c10.3,0,20.6,0,30.9,0
				C252.4,197.9,254.4,197.5,255.8,199.2z"/>
			<path fill="#B6F3E6" d="M84.7,163c4.1,9,9.1,17.3,16.6,24.6c-5.4,0.7-10.3,1.5-14.5,4.3c-0.9,0.6-2.1,1.1-2.7,2
				c-3.5,5.6-8.8,5.4-14.3,5.1c-2.6-0.1-5.2-0.1-7.8-0.1c-0.6-5.5-4.4-9.6-5.9-14.7c-2.1-7-4.6-13.8-5.2-21.2
				c9,0.3,17.9-2.8,26.8-0.1C80.2,163.7,82.4,162,84.7,163z"/>
			<path fill="#D2F8D8" d="M237.3,138.4c0-5.8-0.3-11.7-0.1-17.5c0.3-7.2-1-14.1-4.1-20.6c1-1.2,2.4-1.2,3.7-1.3
				c5.8-0.1,11.6-0.1,17.4,0c1.4,0,2.7,0.4,3.8,1.2c5.3,12.5,9.8,25.2,10.5,38.9c-1,1.1-2.4,1.1-3.8,1.1c-7.1,0.1-14.1,0.2-21.2,0
				C241.3,140.2,239.1,140,237.3,138.4z"/>
			<path fill="#E3F9CE" d="M258.1,100.3c-8.3,0-16.6,0.1-25,0.1c-4-6.5-9-11.9-15.9-15.3c-1.1-0.5-1.6-1.2-1.8-2.5
				c-0.9-5.8-2.3-11.5-4.4-16.9c-0.5-1.3-0.8-2.2,1-2.8c3.8-1.3,6.9-3.8,10.1-6.2c8,6.7,16,13.4,22.5,21.8
				C249.8,85.3,254.6,92.3,258.1,100.3z"/>
			<path fill="#B6F3E6" d="M255.8,199.2c-11.7,0-23.3-0.1-35-0.1c-0.9,0-1.7,0-2.6,0c-1.4,0.1-2.1-0.4-1.9-1.9
				c0.2-1.7,1.3-1.1,2.2-0.9c2,0.6,3.9,0.6,5.9,0.2c7.5-1.4,12.7-7.5,12.8-15.2c0.1-5.6,0.1-11.2,0.1-16.8
				c5.8-1.5,11.7-1.1,17.6-1.1c2.7,0,5.4-0.2,8.1,0.2c1.5,0.2,3,0.4,4,1.7c-0.7,8-3.5,15.3-6.4,22.7
				C259.1,191.8,256.8,195.2,255.8,199.2z"/>
			<path fill="#C7F6DE" d="M84.7,163c-3,1.8-6,1.3-9.2,0.5c-4.6-1.1-9.5-1-14.1-0.2c-3.7,0.7-7.1,1.8-10.6-0.3
				c-1.5-3.1-1.2-6.5-1.4-9.7c-0.3-6-1-12,0.6-18c1.2-1.1,2.7-1.1,4.2-1.2c7.7-0.2,15.4,0.3,23.1-0.3c0.9-0.1,1.7,0,2.4,0.7
				c-0.2,8.3,1.3,16.3,3.3,24.3C83.5,160.4,84.2,161.7,84.7,163z"/>
			<path fill="#C7F6DE" d="M267,165.3c-8.7-1-17.4-1.3-26.2-0.1c-1.1,0.2-2.4-0.4-3.6-0.7c0-8.7,0-17.5,0-26.2
				c10.4,1.4,20.8,0.5,31.3,0.8c1.6,3.1,0.9,6.4,0.7,9.5C268.9,154.2,269,159.9,267,165.3z"/>
			<path fill="#9EEEF1" d="M93.4,233.3c3-2.1,5.8-3.1,9.6-0.8c3.4,2,7.9,1.9,11.1-0.5c4.2-3.2,8.8-2.8,13.5-2.8
				c5.5,0,4.8-0.6,4.8,4.7c0,6.4,0,12.7-0.1,19.1c-7.7-2.9-15.8-4.9-23-9C103.7,240.8,97.8,238.2,93.4,233.3z"/>
			<path fill="#D2F8D8" d="M79.8,134.7c-9.9,1.5-19.8,0.4-29.7,0.8c0.6-6.5,1.5-12.9,4.5-18.8c5.3,6.4,11.4,11.6,19.3,14.5
				c1.2,0.4,2.6,0.5,3.9,0.8C79.4,132.2,80.4,132.8,79.8,134.7z"/>
			<path fill="#9EEEF1" d="M216.4,239.5c-0.5-10.4-0.5-10.4,9.8-10.3c1.2,0,2.4,0.2,3.7,0.3C225.9,233.6,221.5,237,216.4,239.5z"/>
			<path fill="#9EEEF1" d="M231.2,229.1c0.2-0.2,0.4-0.2,0.6-0.1C231.7,229.4,231.5,229.5,231.2,229.1z"/>
			<path fill="#D3F501" d="M175.3,124.9c-0.1-5.5-0.9-11.1,1.3-16.5c4.8-11.9,15.7-18.6,28.2-17c11.6,1.4,21.2,11.4,22,22.8
				c0.1,0.6,0.2,1.2,0.3,1.8c0,3,0,6,0,9c-1.5,1.5-3.5,1.2-5.3,1.2c-5.1,0-10.1-0.4-15.2-0.1c-8.8,0.6-17.6,0.1-26.5,0.1
				C178.5,126.1,176.7,126.3,175.3,124.9z"/>
			<path fill="#FCEF06" d="M106.7,39.9c-3.6-3-7.5-5.3-12.5-6.2c4.6-7,10.5-11.6,18.2-12.5c18.3-2.1,36.4-1.3,53.1,7.4
				c7.8,4.1,15.5,8.5,20.4,16.3c0.5,0.8,1.8,0.3,2,1.4c-0.4,1.6-1.6,2.4-3.1,2c-4.9-1.2-9.7,0.8-14.6-0.1c-1.1-0.3-2.1-0.8-3-1.5
				c-8.5-7-18-7.3-28.1-4.8c-0.5,0.1-1,0.2-1.5,0.1c-2.7-3.2-6.3-3.4-9.9-2.8c-4,0.6-7.9,0.7-11.9,0.5c-1.1,0-2.4-0.5-2.6,1.2
				c-0.2,1.2,1,3.1-1.1,3.3c-1.9,0.2-2.1-1.8-2.7-3.1c-0.2-0.3-0.3-0.5-0.5-0.7c-0.4-0.4-0.9-0.6-1.5-0.5
				C107.2,40,106.9,40,106.7,39.9z"/>
			<path fill="#FCC21A" d="M202.1,70.9c1.5,2.6,1.8,5.6,2.7,8.4c0.5,1.6,0,2.3-1.8,2.2c-13.2-0.6-23.5,5-31.6,15.1
				c-3.1,2.4-6.9,1.6-10.1,1c-3.9-0.8-7.8-0.8-11.5-0.5c-4.4,0.3-8.9,0.6-13.4,0.7c-7.2,0.1-14.4,0-21.6-0.4c-0.6,0-1.2-0.4-1.6-0.9
				c-0.4-9.7-0.4-19.4,0-29.2c2.6-1.7,5.4-1.1,8.1-0.6c1.5,0.8,1.8,2.3,2.1,3.7c2.7,12.7,11.4,21,23,22c12.6,1.1,22.9-5.1,28.1-17.2
				c0.5-1.1,0.8-2.4,1.9-3.2c6.9-2.2,13.8-2.5,20.8-0.9C199.1,71.6,200.6,71.8,202.1,70.9z"/>
			<path fill="#BDBDBD" d="M103.2,63.6c0,6,0,12,0,18c-1.3,1.2-2.9,1.2-4.5,1.2c-17.1,0-34.2,0.1-51.3,0c-1.8,0-4.1,0.6-4.8-2.1
				c1.3-6.7,4.6-12.5,8.8-17.9c2.2-0.6,4.4-0.4,6.7-0.4c13.2,0,26.4,0,39.6,0C99.4,62.4,101.5,62.1,103.2,63.6z"/>
			<path fill="#FD8E2E" d="M165.2,147.4c-0.2,3.4,1.2,6.4,1.9,9.6c-0.2,0.7-0.1,1.5,0,2.2c0.4,2.1,0,3-2.5,2.5
				c-4.4-0.9-8.8,0.6-13.3,0.3c-2.5-0.2-4.3-0.6-4.7-3.4c-0.5-0.7-0.6-1.4-0.4-2.2c0.1-0.2,0.1-0.5,0-0.7c0-1.9-0.3-3.2-2.8-3.1
				c-8.4,0.4-7.2-1.4-6.9,7.2c0,0.5,0,1-0.1,1.5c0,0.4,0.3,0.7,0.4,1.1c0.1,0.5,0.1,1,0.2,1.5c-0.8,1.2-1.9,1.4-3.2,1.4
				c-10.6-0.5-21.3-0.1-31.9-0.2c-1.8,0-3.7,0.2-5.3-1.1c-2.8-4.9-4.7-10.1-5.3-15.7c0.3-1.1,0.1-2.6,2.1-2.3
				c5.1,0.7,10.2,0.3,15.2,0.3c17,0.1,34,0,51,0C161.5,146.2,163.5,145.9,165.2,147.4z"/>
			<path fill="#FD9929" d="M165.2,147.4c-22.1,0-44.3,0.1-66.4-0.1c-2,0-4.5,2-6.3-0.7c-0.4,0.6-0.9,1.1-1.3,1.7
				c-1.3-4.2-1.3-8.5-1.4-12.8c0-1.8,0.6-2.4,2.4-2.3c3.2,0.1,6.4,0.1,9.6,0.1c1.2,0.6,2.5,0.5,3.7,0.4c18.4-1.5,36.7-0.7,55.1-0.4
				c1.6,0,3.2-1,4.7,0C165.2,137.9,165.2,142.6,165.2,147.4z"/>
			<path fill="#B0EC01" d="M175.3,124.9c17.3,0,34.6,0,51.9,0c0,8.5,0,17,0,25.4c-3.5,1.2-7.1,0.4-10.6,0c0-0.8,0-1.5,0-2.3
				c0-0.5,0.1-1-0.4-1.4c-2.6-0.3-5.1-0.1-7.7-0.4c-3-0.4-1.4,2.7-2.1,4.1c-3.5,0.4-6.9,2.2-10.4,0c0-6.1-0.2-12.2-0.1-18.3
				c0.1-2.7-0.8-3.7-3.4-3.3c-2.2,0.3-4.5-0.7-6.5,0.7c0,0.2-0.1,0.4-0.1,0.6c0.3,4.2,0.4,8.5-0.1,12.7c-3.5,1.3-7,2.4-10.6,0
				C175.2,136.9,175.2,130.9,175.3,124.9z"/>
			<path fill="#CECECE" d="M103.2,63.6c-15.6,0-31.3,0-46.9,0c-1.8,0-3.5,0-5.1-0.9c9.9-12.7,22.9-19.1,38.9-19.4
				c7.7-0.1,13.1,5.3,13.2,13.1C103.3,58.8,103.2,61.2,103.2,63.6z"/>
			<path fill="#A9A9A9" d="M42.5,80.6c1,1.3,2.5,0.9,3.8,0.9c19,0,38,0,56.9,0c0,3-0.1,6,0.2,8.9c0.2,2.6-1,3.1-3.3,3
				c-13.3-0.1-26.6,0.1-39.9-0.1c-6.1-0.1-11.8,1.1-17,4.5c-1.6,1.1-2.7,1.4-2.7-1.2C40.5,91.3,40.6,85.8,42.5,80.6z"/>
			<path fill="#FC8033" d="M146.5,158.6c0.9,1.9,2.4,2.5,4.5,2.3c3.9-0.3,8,0.7,11.7-1c1.9-0.9,2,1.5,3.6,1.4
				c0.7-1.3-2.3-3.5,0.8-4.3c4.5,4.6,9.6,7.8,16.5,6.8c1.3-0.2,1.6,0.6,2,1.9c1.8,5.9,4.7,11.1,11.1,13.1c0.5,2.9-1.8,2.5-3.3,2.5
				c-3.8,0.1-7.7,0.8-11.5,0.7c-7.2-0.2-14.3-0.4-21.5,0c-1,0.1-2-0.3-2.9-0.7l0.1-0.1c-0.1-0.8-1-0.5-1.3-1
				C151.5,173.8,146.7,167.2,146.5,158.6z"/>
			<path fill="#6D6C6D" d="M81.2,103.2c6.3,0,12.7,0.1,19,0c2.2,0,3.1,0.6,3.1,2.9c-0.2,4.2-0.1,8.5,0,12.7c0,2-0.6,3.5-2.7,3.8
				c-9.5,1.3-18.9,1.4-27.6-3.2c-5.7-3-10.1-7.5-12.9-13.5c-1-2.2-0.6-2.8,1.8-2.8C68.3,103.3,74.7,103.2,81.2,103.2z"/>
			<path fill="#FDAE21" d="M165.3,108.5c0,4.7-0.1,9.5-0.1,14.2c-1.4,1.4-3.2,1.2-4.9,1.2c-14.1,0-28.2,0-42.2,0
				c-1.7,0-3.5,0.2-4.9-1.2c0.1-4.5,0.2-9,0.3-13.5c1.4-1.4,3.2-1.2,4.9-1.2c14.8-0.2,29.7,0.3,44.5-0.2
				C163.7,107.8,164.6,107.8,165.3,108.5z"/>
			<path fill="#FDB81D" d="M165.3,108.5c-5.9,1.4-11.9,0.7-17.8,0.7c-11.3,0.1-22.7,0-34,0c-0.4-4.2-0.4-8.5,0-12.7
				c7,0.4,14.1,0.4,21.1,0.3c4.7-0.1,9.7,0.4,14.7-1.1c2.6-0.8,6.6-0.7,9.7,0.2c4.2,1.2,8.3,0.8,12.5,0.6
				C168.8,100.2,168.1,104.9,165.3,108.5z"/>
			<path fill="#F8A225" d="M113.1,122.7c17.4,0,34.7,0,52.1,0c0,3.5,0,7,0,10.5c-2.1,1.1-4.2,1-6.6,0.9c-16.3-0.3-32.5-0.3-48.8,0
				c-2.3,0-4.6,0.9-7,0.5c-0.7-0.1-0.9-0.7-1-1.4C107.4,131.7,111.3,128.4,113.1,122.7z"/>
			<path fill="#FC8033" d="M96.4,163.9c11.8-0.3,23.6,0.4,35.4-0.3c1.6-0.1,3.3,1.3,5.1,0.3c1.4,5.1,3.2,10,5.4,14.8
				c0,2.1-1.8,2.1-3.1,2.4c-1.7,0.4-3.5,0.4-5.2,0.3c-6.3-0.4-12.6,0.5-18.9,0.8c-2.5,0.1-4.6-0.8-6.7-1.8
				C103.2,175.7,99.1,170.3,96.4,163.9z"/>
			<path fill="#FBE00F" d="M202.1,70.9c0.4,2.7-2,2.1-2.9,1.8c-7.5-2.5-15.1-1.1-22.6-0.1c-0.9-0.7-0.8-1.7-0.6-2.7
				c0.9-6.6-1-12.4-4.4-18c-0.7-1.1-1.8-2.1-1.3-3.7c0.9-1.5,2.4-1.2,3.6-1c2.6,0.5,5,1,7.2-1c0.6-0.5,1.2-0.3,1.6,0.2
				c1.7,2.2,3.4,1.2,5-0.1C194.6,53.4,199.3,61.6,202.1,70.9z"/>
			<path fill="#FA7339" d="M108.3,180.4c9.6,1.6,19.2-0.8,28.8-0.1c1.9,0.1,3.7-0.2,5.1-1.6c3.4,5,6.4,10.3,11.7,13.5
				c-4.1,5.2-8.8,6.3-14.9,4.8C127.3,194,116.8,189.2,108.3,180.4z"/>
			<path fill="#FBE00F" d="M122,67.3c-2.9,0-5.8,0-8.6,0c-0.1-2.9-0.3-5.9-0.2-8.8c0.2-5.4-0.9-10.5-3.8-15.1
				c0.3-1.2-1.4-2.4-0.2-3.7c2.2,0.5,0.8,3.6,2.9,4.3c0.2-0.2,0.5-0.4,0.5-0.6c-1-4.7-1-4.8,4-4.4c5.2,0.4,10.3-1.1,15.5-0.7
				c2.4,0.2,5,0.3,5.5,3.6c-1.6,2.4-4.3,3.8-6.3,5.8c-4.3,4.3-7.3,9.1-7.9,15.3C123.4,64.4,123.2,66.1,122,67.3z"/>
			<path fill="#FA7339" d="M157.6,181.4c6.6-0.1,13-1.6,19.7-0.5c5.9,1,12-1.1,18-0.6c0.9,0.1,1.2-0.7,1.4-1.4
				c1.4,0.1,2.7,0.1,4.1,0.2c5.6,0.1,5.6,0.1,5.6,5.9c0,3.5,0,7,0,10.5c0,0.8,0.3,1.9-1,2.1c-1,0.2-1.6-0.2-2.1-1.1
				c-4.9-9.1-13.1-9.3-21.7-7.6c-2.3,0.5-4.4,0.6-6.5-0.3c-1.9-0.8-4-0.9-5.9-0.5C163.3,189.2,160.4,185.4,157.6,181.4z"/>
			<path fill="#2293D5" d="M167.6,261.8c0-10.1,0-20.2,0-30.7c4.3,2.2,8.4,3,12.8,2c1.9-0.4,1.4,1.3,1.4,2.3c0,8.8,0,17.7-0.1,26.5
				C177,263.7,172.3,263.7,167.6,261.8z"/>
			<path fill="#93E202" d="M216.6,150.3c3.5-1.5,7.1,0,10.6,0c0,10.3,0.2,20.6,0.1,31c0,3.2-2.6,5.6-5.4,5.5c-2.9,0-5.4-2.3-5.4-5.6
				C216.4,171,216.5,160.6,216.6,150.3z"/>
			<path fill="#BC9C50" d="M170.7,215.8c0-11.5,6.9-18.9,17.8-18.9c4.5,0,6.9,1.9,6.9,5.5c0.1,3.6-2.2,5.5-6.7,5.6
				c-5.1,0.1-7,1.9-7,6.9c0,1.1,0,2.2,0,3.4c-0.1,3.9-2.2,6.3-5.4,6.2c-3.3,0-5.3-2.2-5.6-6.1C170.6,217.5,170.7,216.6,170.7,215.8z
				"/>
			<path fill="#BC9C50" d="M102.6,215.2c-0.1-7.3,2.7-13,9.4-16.5c1.4-0.7,2.7-0.8,4.2,0c3.1,1.7,6.2,3.2,9.4,4.5
				c2.3,0.9,1.5,1.9,0.4,3c-1.6,1.6-3.7,1.8-5.9,1.8c-4.5,0-6.3,1.8-6.4,6.3c0,1.5,0.1,3,0,4.5c-0.2,3.5-2.5,5.7-5.7,5.7
				c-3,0-5.1-2.2-5.4-5.6C102.5,217.7,102.6,216.4,102.6,215.2z"/>
			<path fill="#D3F501" d="M183.4,20.7c8.6-0.6,17.2-0.2,25.8-0.3c2,0,2.2,1,1.7,2.6c-2.2,6.5-10.9,12.4-17.8,12.1
				c-1.2-0.1-2.1-0.4-3-1.2c-1.7-1.6-3.5-3.2-5.2-4.8c-0.3-0.2-0.5-0.5-0.8-0.7c-0.7-0.5-1.4-1.1-2.1-1.6
				C182.7,24.9,182.1,22.6,183.4,20.7z"/>
			<path fill="#2293D5" d="M142.3,251.4c0-6.3-0.1-12.7-0.1-19c0-3.4,1.8-4.6,4.6-2.7c2.9,1.9,5.9,3.2,9.2,3.7
				c1.2,0.2,1.7,0.8,1.7,2c-0.1,5.3-0.2,10.7-0.3,16C152.4,253.2,147.3,253.2,142.3,251.4z"/>
			<path fill="#1072EA" d="M167.6,261.8c4.7,0,9.4,0,14.1,0c0,5.1,0.2,10.2,0.1,15.2c-0.1,4.4-3,7.3-7.2,7.3c-4.1,0-7.1-2.9-7.2-7.3
				C167.4,272,167.6,266.9,167.6,261.8z"/>
			<path fill="#A26A2F" d="M238.4,213.2c0.6,6.9,0.6,6.9-6.3,6.9c-12.7,0-25.4,0-38.1,0c-1.2,0-3.1,0.7-3.1-1.5
				c-0.1-1.9,1.6-2.1,2.9-2.2c2.8-0.1,4.3-2.3,6.6-3.3c10.4-0.6,20.8-0.2,31.2-0.2C233.8,212.8,236.2,212.1,238.4,213.2z"/>
			<path fill="#BC9C50" d="M167.4,197.3c-5.2,7.7-6.4,15.4-5.4,23.5c0.2,2.1-1.2,3-2.8,3.4c-2.3,0.7-4.9,0.2-5.9-2
				c-2.6-5.5-1.6-11.3,0.9-16.5C156.6,200.9,160.7,197.9,167.4,197.3z"/>
			<path fill="#BC9C50" d="M98.9,198c-5.2,6.7-5.7,14.6-5.2,22.6c0.1,1.9-0.7,3.2-2.5,3.7c-2.5,0.7-5.2,0.1-6.2-2.2
				c-2.3-5.4-1.6-11,1-16.1c2.4-4.8,6.3-7.9,11.9-8.4C98,197.5,98.2,197.7,98.9,198z"/>
			<path fill="#1072EA" d="M142.3,251.4c5,0,10.1,0,15.1,0c0.5,3.2,0.4,6.4-0.1,9.6c-0.6,4.1-3.6,6.8-7.5,6.7
				c-4.3-0.1-7.5-3-7.7-7.4C142.1,257.3,142.3,254.3,142.3,251.4z"/>
			<path fill="#BF7E30" d="M238.4,213.2c-0.9,0.3-1.9,0.8-2.8,0.8c-11.1,0.1-22.2,0-33.3,0c-0.8,0-1.5-0.2-1.9-0.9
				c1.9-4.2,5.1-5.5,9.8-5.2c7.9,0.5,15.9,0.1,23.9,0.1C239.3,208,239.3,208,238.4,213.2z"/>
			<path fill="#1072EA" d="M206.3,239.4c0,2.6,0.2,5.2,0.1,7.8c-0.2,3.9-3,6.6-6.9,7c-3.3,0.3-6.6-2.3-7.4-5.9
				c-0.7-2.9-0.5-5.9-0.1-8.8C196.7,237.5,201.5,237.6,206.3,239.4z"/>
			<path fill="#93E202" d="M196,150.4c2.9-0.2,5.9,0.6,8.6-0.9c0.9-0.5,1.2,0.6,1.8,0.9c0,4.4,0.2,8.9,0.1,13.3
				c-0.1,3.4-2.1,5.4-5.3,5.4c-3.1,0-5.2-1.9-5.3-5.4C195.9,159.3,196,154.8,196,150.4z"/>
			<path fill="#2293D5" d="M213.9,40.3c1.9,0.4,4.8-1.2,5.8,0.8c0.9,2-1.3,4.1-2.6,5.9c-0.8,1.2-1.9,2.3-3,3.3
				c-5.8,5.1-7.6,4.8-11.7-1.4c-0.7-1-1.4-2.1-2.1-3.1c-0.7-0.9-0.8-1.6,0.5-1.9C205.2,42.7,208.8,39,213.9,40.3z"/>
			<path fill="#2293D5" d="M206.3,239.4c-4.8,0-9.6,0-14.4,0c-1.3-10.3-1.3-10.3,9-10.3c1,0,2,0.1,3,0c1.9-0.2,2.7,0.5,2.6,2.5
				C206.3,234.2,206.4,236.8,206.3,239.4z"/>
			<path fill="#F8A225" d="M245.6,213.7c0.3-3.9,3.8-6.8,7.7-6.4c3.7,0.4,6.6,3.8,6.2,7.5c-0.4,3.7-3.9,6.7-7.5,6.4
				C248.5,220.9,245.3,217.2,245.6,213.7z"/>
			<path fill="#A26A2F" d="M74.8,214c0,0.1,0,0.2,0,0.4c0.1,5.7,0.1,5.7-5.4,5.7c-2.8,0-5.7,0.1-8.5,0c-4-0.1-5.9-2.5-5.6-6.8
				c0.9-0.7,2-0.9,3.2-0.7c3.9,0.5,7.9,0.2,11.8,0.3C71.9,212.8,73.5,212.8,74.8,214z"/>
			<path fill="#93E202" d="M175.2,142.9c3.5,0.8,7-0.3,10.6,0c0.6,2.2,0.5,4.4,0.1,6.6c-0.5,2.9-2.5,4.6-5.5,4.5
				c-2.9-0.1-4.9-1.9-5.2-4.8C174.9,147.1,175.2,145,175.2,142.9z"/>
			<path fill="#BF7E30" d="M74.8,214c-6.5-0.1-13.1,0.5-19.5-0.8c0.7-3.9,3.3-5.3,7-5.2c3.1,0.1,6.2,0.2,9.3,0
				c3-0.2,4.6,0.4,3.3,3.8C74.7,212.4,74.9,213.2,74.8,214z"/>
			<path fill="#A26A2F" d="M142.5,214.6c0.7,5,0.3,5.4-4.6,5.4c-4.3,0-8.7,0.1-13,0.1c-0.8,0-1.8,0.6-2.1-0.7
				c-0.2-1.1-0.2-2.2,1.3-2.6c2.4-0.6,4.7-1.6,6.8-3c2.5,0.4,4.9,0,7.4-0.1C139.7,213.7,141.2,213.5,142.5,214.6z"/>
			<path fill="#BF7E30" d="M142.5,214.6c-2.7,0.3-5.4-0.2-8,0.7c-1.3,0.5-2.6-0.3-3.5-1.4c1.2-1.4,2.6-2.6,3.6-4.1
				c0.8-1.2,1.6-1.7,3-1.8C143.1,207.6,143.3,207.8,142.5,214.6z"/>
			<path fill="#B0EC01" d="M183.4,20.7c-0.5,2,1.7,4.7-1.5,6.1c-2.9-1.8-5.9-3.6-8.8-5.5c-0.1-0.1-0.2-0.4-0.4-1
				C176.4,20.6,179.9,20,183.4,20.7z"/>
			<path fill="#FCEF06" d="M109.2,39.7c-0.1,1.2,1.5,2.4,0.2,3.7c-0.9-1.1-1.8-2.3-2.8-3.4c0.1-0.1,0.2-0.2,0.3-0.3
				C107.7,39.2,108.5,39.1,109.2,39.7L109.2,39.7z"/>
			<path fill="#B0EC01" d="M227.2,115.9c-0.5-0.5-0.5-1.1-0.3-1.8C227.3,114.7,227.4,115.3,227.2,115.9z"/>
			<path fill="#93E202" d="M216.2,146.6c0.8,0.3,0.9,0.8,0.4,1.4C216.4,147.6,216.3,147.1,216.2,146.6z"/>
			<path fill="#FA7339" d="M156.4,180.3c0.6,0.1,1.2,0.2,1.3,1C157,181.3,156.6,180.9,156.4,180.3z"/>
			<path fill="#B0EC01" d="M184,28.4c0.3,0.2,0.5,0.5,0.8,0.7C184.5,28.9,184.3,28.7,184,28.4z"/>
			<path fill="#FC8033" d="M136.7,162.3c-0.1-0.4-0.3-0.7-0.4-1.1C136.4,161.6,136.6,161.9,136.7,162.3z"/>
			<path fill="#FC8033" d="M146,155.6c0.1,0.2,0.2,0.3,0.2,0.5c0,0-0.1,0.1-0.2,0.2C145.9,156.1,145.9,155.9,146,155.6z"/>
			<path fill="#93E202" d="M185.9,130.1c0-0.2,0.1-0.4,0.1-0.6C186.1,129.7,186.1,129.9,185.9,130.1z"/>
			<path fill="#FCFCFA" d="M122,67.3c0.4-11.5,5.6-20,15.7-25.6c9.8-3.9,19.3-3.3,28.2,2.6c1.6,1.1,3.1,2.5,4.6,3.8
				c5.6,7.2,7.9,15.3,6.2,24.4c-3.4,10.8-10.1,18.1-21.5,20.4c-15.1,3.1-30.7-6.8-32.7-23.1C122.4,69,122.2,68.2,122,67.3z"/>
			<path fill="#FBE00F" d="M109.2,39.7c-0.7,0-1.5,0-2.2,0C107.8,38.7,108.5,38.7,109.2,39.7z"/>
			<path fill="#46404D" d="M135.3,66.4c0-7.9,6.2-14,14.3-14c8.3,0,14.5,6.2,14.4,14.3c-0.1,7.9-6.4,13.9-14.5,13.9
				C141.5,80.5,135.3,74.3,135.3,66.4z"/>
			<path fill="#FCFCFA" d="M158.7,63c0,2.9-2.3,5.1-5.2,5.1c-3.3-0.1-5.7-2.1-5.8-5c-0.1-3,2.5-5.3,5.9-5.3
				C156.4,57.8,158.7,60.1,158.7,63z"/>
		</g>
	</g>
</g>
</svg>
