<?xml version="1.0" encoding="utf-8"?>
<!-- Generator: Adobe Illustrator 23.0.1, SVG Export Plug-In . SVG Version: 6.00 Build 0)  -->
<svg version="1.1" id="Capa_1" xmlns="http://www.w3.org/2000/svg" xmlns:xlink="http://www.w3.org/1999/xlink" x="0px" y="0px"
	 viewBox="0 0 626 626" style="enable-background:new 0 0 626 626;" xml:space="preserve">
<g transform="translate(0.000000,626.000000) scale(0.100000,-0.100000)">
	<path d="M2561,4984c-117-31-239-127-300-234c-30-55-32-56-93-69c-241-49-453-218-559-444c-56-122-69-199-76-459l-6-238h66
		c63,0,67,1,67,23c1,30,36,106,63,135c47,51,53,49,90-30c60-129,168-223,307-268l67-22l6-106c12-219,93-414,243-589l36-42l-29-6
		c-90-17-123-29-170-60c-29-19-59-46-68-59c-15-23-21-24-163-28c-156-5-190-13-235-56c-106-100-81-263,48-323c33-15,65-19,182-19
		c134,0,144-1,178-24c54-37,117-43,177-18c48,20,49,20,91,2c23-11,60-20,82-20c41,0,117,29,129,49c5,7,44,11,102,11h94v-216
		c0-124,5-234,11-259c14-55,70-122,123-146c45-20,130-25,170-9c24,9,26,7,26-18c0-113,105-221,215-222c64,0,109,17,158,60
		c62,55,77,103,77,246v112l78-5c86-6,121,5,175,56c60,55,71,92,75,253l4,148h266c251,0,268,1,310,21c29,15,54,37,74,68
		c27,42,29,52,26,118c-3,62-7,76-34,109c-61,75-75,79-376,82c-261,3-268,3-268,23c0,18,4,20,43,14c95-15,201,51,226,140
		c14,52,15,930,1,1006c-24,125-117,257-228,324c-48,29-51,33-62,90c-10,53-42,168-56,202c-3,7,19,24,53,42c120,60,203,191,211,333
		l5,78h-86h-86l21,48c14,31,23,75,26,130l5,82l-729-1C2740,4999,2606,4996,2561,4984z M3080,4855c289-63,541-256,674-515
		c40-77,96-232,96-264c0-10-23-15-82-18c-151-9-284-84-365-206c-76-113-83-154-83-466c0-266,1-274,23-317c13-24,43-57,66-74
		c38-26,51-30,112-30h70l6-38c16-102,101-171,211-170l63,1l-2-119c-1-66-5-121-9-124c-5-3-15,2-22,11c-78,98-127,121-243,109
		c-85-8-96-8-212,2c-90,8-93,9-133,48c-91,89-162,235-176,362l-6,63h-64h-64v-53c0-127,76-313,171-423l50-57l-33-34
		c-32-34-34-35-95-29c-196,20-418,148-541,312c-102,135-157,283-168,451l-7,93h86c96,0,129,9,170,48c59,55,57,40,57,560
		c0,538,0,535-72,617c-39,44-121,95-152,95c-34,0-25,25,25,74c57,54,124,92,193,106C2687,4884,2993,4873,3080,4855z M3940,4876
		c0-2-7-19-15-39c-33-81-116-143-203-154c-49-5-50-5-118,52c-38,32-97,76-131,98c-35,22-63,41-63,43s119,4,265,4
		S3940,4878,3940,4876z M4044,4588c-20-65-118-158-164-158c-10,0-35,26-58,62l-41,62l46,18c26,9,51,22,57,28c5,5,45,10,89,10
		C4050,4610,4051,4609,4044,4588z M2415,4547c22-13,49-40,62-62c22-39,23-48,23-312v-272l-349-3l-348-3l-73-37l-73-38l6,98
		c10,151,47,261,126,376c46,66,153,159,231,200C2160,4568,2336,4592,2415,4547z M3942,3901c74-36,133-94,170-169l33-67l3-469
		c2-327-1-478-8-497c-24-57-103-58-129-3c-7,16-11,106-11,259v235h-65h-65v-130c0-117-2-132-20-150c-23-23-68-26-96-6
		c-18,13-19,32-24,268l-5,253l-62,3l-63,3v-136c0-100-4-144-15-164c-24-48-72-55-111-16l-25,25l3,268c3,249,4,270,25,314
		c40,87,127,165,216,194C3756,3937,3884,3929,3942,3901z M3701,2494c11-10,19-31,19-50c0-45-38-74-96-74c-66,0-84-23-84-105
		c0-57-3-69-25-90c-29-29-64-32-95-7c-20,16-22,28-23,99c-1,99,27,162,89,206C3552,2520,3661,2530,3701,2494z M2407,2448
		c-28-56-32-76-37-173c-5-109-5-110-33-119c-41-15-79,9-91,57c-14,56,6,161,41,211c28,39,100,86,134,86
		C2436,2510,2434,2502,2407,2448z M3338,2503c-56-110-61-129-66-227c-2-56-9-107-14-113c-14-18-59-16-86,3c-20,14-22,24-22,100
		c0,66,5,94,21,126c24,48,62,85,104,104C3308,2511,3344,2514,3338,2503z M2738,2459l86-42l-28-23c-20-18-39-24-72-24
		c-47,0-83-24-85-57c-5-121-6-127-29-145c-31-25-66-23-97,8c-24,24-25,30-20,103c3,51,12,92,26,119c21,42,91,102,118,102
		C2645,2500,2690,2481,2738,2459z M4551,2354c45-41,31-121-27-149c-51-24-104-1-125,54c-13,34,7,88,39,106S4525,2378,4551,2354z
		 M2127,2353c-3-10-8-31-11-46c-4-15-11-25-16-22c-15,9-210,11-210,2c0-5-8-1-17,9c-16,16-15,18,15,45c31,28,36,29,138,29
		C2121,2370,2131,2368,2127,2353z M4305,2348c-10-32-38-74-42-63c-2,6-82,8-219,5c-119-3-218-2-221,3c-2,4-13,2-25-4
		c-23-13-21-5,20,49l24,32h235h234L4305,2348z M3116,2055c26-14,58-25,71-25c23,0,24-2,21-62l-3-63l-83-3c-81-3-82-2-92,23
		c-6,15-10,55-10,91c0,61,1,64,24,64C3058,2080,3090,2069,3116,2055z M3482,2032l58,4v-128v-128h-95h-95v139v140l37-16
		C3412,2033,3444,2029,3482,2032z"/>
	<path d="M3045,4432c-102-49-141-149-96-247c34-74,85-105,172-105c114,0,192,93,176,211C3281,4408,3149,4481,3045,4432z M3208,4360
		c45-42,15-120-47-120c-33,0-71,39-71,72c0,26,44,68,73,68C3176,4380,3196,4371,3208,4360z"/>
</g>
</svg>
